<?xml version="1.0" encoding="utf-8"?><svg viewBox="0 0 1200 800" xmlns="http://www.w3.org/2000/svg" xmlns:xlink="http://www.w3.org/1999/xlink"><style>:root>svg{display:none}:root>svg:target{display:block}</style><svg viewBox="0 0 12 7" id="accordion-arrow" xmlns="http://www.w3.org/2000/svg"><path d="M11 1L6 6 1 1"/></svg><svg viewBox="-44.999 -50.683 389.991 304.099" id="adidas" xmlns="http://www.w3.org/2000/svg"><g clip-path="url(#d)" transform="matrix(21.955 0 0 -21.955 -2044.076 10480)"><path d="M105.72 468.11c-.639 0-1.018.327-1.047.798h.611c0-.157.087-.366.465-.379.262 0 .407.157.407.275-.029.183-.262.196-.494.236a2.389 2.389 0 00-.611.156.626.626 0 00-.32.563c0 .419.35.746.96.746.582 0 .96-.301.988-.759h-.581c0 .117-.029.314-.378.314-.233 0-.378-.039-.407-.209 0-.236.494-.223.872-.314.349-.092.582-.314.582-.629 0-.576-.465-.798-1.047-.798"/></g><path d="M32.56 117.8l44.042-25.578 23.624 40.53H40.86M125.174 201.12v-51.155"/><g clip-path="url(#c)" transform="matrix(21.955 0 0 -21.955 -2044.076 10480)"><path d="M93.655 469.31c0-.366.32-.667.668-.667.379 0 .669.301.669.667 0 .353-.29.667-.669.667a.692.692 0 01-.668-.667m.639-1.204c-.639 0-1.191.537-1.191 1.204 0 .667.552 1.191 1.191 1.191.262 0 .495-.066.698-.209v.183h.582v-2.316h-.582v.144c-.174-.131-.436-.197-.698-.197"/></g><path d="M196.614 132.74L135.337 25.863 179.38 0l76.601 132.74"/><g clip-path="url(#b)" transform="matrix(21.955 0 0 -21.955 -2044.076 10480)"><path d="M96.33 469.31c0-.366.291-.667.669-.667.348 0 .669.301.669.667a.693.693 0 01-.669.667.672.672 0 01-.669-.667m.64-1.204a1.19 1.19 0 00-1.192 1.204c0 .667.523 1.191 1.192 1.191.261 0 .494-.066.698-.209v.981h.581v-3.114h-.581v.144a1.265 1.265 0 00-.698-.197"/></g><path d="M84.27 72.119l44.68-25.27 49.156 85.888h-46.61v12.646H118.74v-12.646"/><g clip-path="url(#a)" transform="matrix(21.955 0 0 -21.955 -2044.076 10480)"><path d="M106.39 470.7a.3.3 0 00-.291.288.3.3 0 00.291.288.283.283 0 00.291-.288.283.283 0 00-.291-.288m0 .536c-.146 0-.233-.117-.233-.248s.087-.249.233-.249c.145 0 .232.118.232.249s-.087.248-.232.248"/><path d="M106.45 470.83l-.058.131h-.058v-.131h-.044v.314h.131c.029 0 .087-.04.087-.092a.093.093 0 00-.058-.091l.058-.131m-.116.274h-.058V471h.058c.058 0 .058.013.058.052 0 .027 0 .052-.058.052m-3.842-1.794c0-.366.291-.667.669-.667.349 0 .668.301.668.667a.691.691 0 01-.668.667.672.672 0 01-.669-.667m.639-1.204a1.19 1.19 0 00-1.191 1.204c0 .667.523 1.191 1.191 1.191.262 0 .495-.066.698-.209v.183h.553v-2.316h-.553v.144a1.26 1.26 0 00-.698-.197m-3.312 1.204c0-.366.32-.667.669-.667.378 0 .669.301.669.667a.672.672 0 01-.669.667.692.692 0 01-.669-.667m1.338 1.963h.581v-3.114h-.581v.144a1.107 1.107 0 00-.669-.197c-.669 0-1.221.537-1.221 1.204 0 .667.552 1.191 1.221 1.191.261 0 .494-.066.669-.209z"/></g></svg><svg viewBox="0 0 77 77" id="arrow-large" xmlns="http://www.w3.org/2000/svg"><path d="M59.463 17.04L17.038 59.465m8.277-42.354l34.15-.073-.071 34.152"/></svg><svg viewBox="0 0 17 14" id="basket" xmlns="http://www.w3.org/2000/svg"><path d="M3.5 3H16l-1.586 5.55A2 2 0 0112.491 10h-6.7a2 2 0 01-1.989-1.78L3 1H1M5.5 14a1 1 0 100-2 1 1 0 000 2zm8 0a1 1 0 100-2 1 1 0 000 2z"/></svg><svg viewBox="-30 -16.372 259.997 98.232" id="coca-cola" xmlns="http://www.w3.org/2000/svg"><path d="M167.106 55.846c-.003 0-.619.549-.619.549-.88.786-1.784 1.628-2.877 1.207-.301-.11-.514-.512-.565-.824-.05-2.25.964-4.336 1.947-6.366l.252-.531c2.827-4.72 6.113-10.282 10.939-14.142.813-.587 1.696-1.08 2.627-.695.214.2.464.548.464.896 0 .11-.098.402-.154.493-1.348 2.179-2.632 4.465-3.88 6.66-2.44 4.337-4.97 8.82-8.134 12.754zm-26.15-11.124c-.184.129-3.444-.97-4.074-3.988-.535-2.6 1.255-4.63 2.987-5.654.743-.585 1.862-.786 2.684-.495.762.513.968 1.429.968 2.415 0 .605-.08 1.227-.15 1.794l-.016.128a24.36 24.36 0 01-2.398 5.8zm-12.453 12.277c-.333-.494-.443-1.034-.454-1.618-.064-3.588 3.796-10.012 6.52-13.512h.007c1.141 2.5 3.727 4.107 5.288 4.784-1.939 4.318-8.587 13.566-11.36 10.346zm47.054.637c-.645.439-1.552.102-1.213-.904.844-2.562 4.2-7.782 4.2-7.782l9.35-16.582h-6.404c-.304.5-.955 1.648-.955 1.648-.297-.493-1.183-1.59-1.547-1.828-1.565-.989-3.86-.521-5.444.375-6.885 4.026-11.908 11.98-15.87 18.182 0 0-4.17 6.895-6.485 7.408-1.807.147-1.62-2.288-1.543-2.855.7-4.1 2.322-7.996 3.957-11.527a88.557 88.557 0 0010.569-8.636c7.484-7.154 13.794-15.26 14.716-17.07 0 0-.998.2-2.177.237-5.758 8.032-17.541 19.706-21.113 21.443 1.582-3.806 11.807-21.974 20.508-30.664l1.37-1.318c2.116-2.067 4.31-4.19 6.02-4.537.18-.018.412 0 .613.421.076 1.61-.523 2.8-1.21 4.153l-.964 1.977s1.365-.257 2.261-.55c1.04-1.957 2.192-4.153 1.767-6.769-.141-.842-.75-1.482-1.547-1.628-2.595-.494-5.424 1.426-7.7 2.982l-.092.054c-11.7 9.167-21.58 22.377-30.218 40.417-.626.475-3.045 1.043-3.456.768.853-1.756 1.927-4.117 2.464-6.678.093-.732.18-1.482.18-2.213 0-1.575-.378-3.057-1.789-4.08-1.654-.824-3.698-.44-5.076.182-6.175 2.561-10.79 8.892-14.12 14.106-1.79 3.312-3.576 6.86-4.07 10.923-.349 3.183.36 5.232 2.17 6.257 1.861.95 4.204-.038 5.124-.513 6.255-3.293 10.626-9.898 14.07-15.936.138-.018 2.019-.072 3.442-.439.019 0 .027 0 .058.02-.081.273-.817 2.469-.817 2.469-2.183 6.403-3.193 10.758-1.13 13.338 2.947 3.641 7.826-.128 11.796-5.105-.852 5.964 2.239 6.898 4.595 6.441 2.707-.732 5.723-3.623 7.123-5.105-.45 1.738-.327 4.849 2.135 5.16 1.688.312 2.95-.606 4.412-1.393 5.242-2.855 11.518-12.366 13.147-15.116h-2.136c-2.316 3.5-5.263 8.09-8.97 10.268zM94.796 22.118h6l3.386-5.5H98.18zm95.84-14.611c-4.574 2.599-9.316 4.281-15.057 3.696-1.591 1.794-3.14 3.641-4.568 5.544 8.057 2.05 16.6-2.507 21.363-6.842 5.04-4.373 7.624-9.88 7.624-9.88s-3.778 4.317-9.361 7.482zm-50.45-1.39c-.953 10.941-9.458 17.364-11.562 17.875-1.275.256-3.451-.311-1.509-4.903 2.86-6.185 7.745-11.435 12.985-14.125.128.458.124.75.087 1.153zm-16.571 27.572c-.61-1.317-2.056-2.159-3.597-2.067-5.006.457-9.902 4.574-12.473 10.484-1.35 3.037-2.086 5.543-2.568 9.532 1.556-1.793 4.731-4.738 8.334-6.348 0 0 .49-3.824 2.99-7.227.946-1.41 2.84-3.678 4.965-3.075 1.858.623 1.205 5.764-1.264 10.74-1.826 3.66-4.621 7.32-7.45 9.844-2.5 2.122-6.199 4.683-9.435 2.708-2.039-1.207-3.078-3.733-2.859-6.99.974-9.239 5.18-17.107 11.198-26.072 6.206-8.324 13.047-16.869 22.263-21.426 1.88-.95 3.62-1.17 5.126-.585 0 0-8.651 4.757-12.775 13.558-1.05 2.233-2.508 5.25-1.04 7.922.768 1.39 2.132 1.5 3.23 1.427 5.054-1.171 8.32-5.891 10.988-10.209 1.547-3.275 2.922-6.532 2.922-10.155 0-.439-.022-1.024-.06-1.464 2.415-1.28 7.367.988 7.367.988 3.87 1.282 12.11 7.594 14.89 8.801 1.355-1.573 3.583-3.951 4.838-5.14l-1.817-1.117c-2.907-1.775-5.98-3.458-9.005-5.123-6.87-3.75-12.462-2.433-15.308-1.409-1.119.403-2.141.75-2.141.75-2.112-2.305-5.576-2.086-8.128-1.463-9.179 2.634-17.7 9.056-26.836 20.199-6.717 8.727-10.884 16.266-13.104 23.712-1.712 5.013-2.232 12.386 1.946 16.759 3.552 3.713 8.262 2.909 11.589 1.573 7.207-3.55 13.684-11.198 16.912-19.998.779-2.616 1.643-6.312.302-9.13zM43.73 25.2a888.64 888.64 0 01-1.224 2.817c-.175.147-.452.074-.77 0l-.544-.092c-1.708-.53-2.997-1.664-3.394-3.018-.548-2.635 1.703-4.702 2.695-5.452.951-.66 2.43-1.007 3.29-.33.53.623.73 1.427.73 2.306 0 1.19-.367 2.525-.783 3.77zm-2.604 5.287s-.055.165-.082.22c-.007 0-2.755 4.481-2.755 4.481-1.658 2.215-3.729 4.996-6.318 6.331-.767.257-1.827.422-2.368-.255-1.146-1.372-.555-3.275-.075-4.812l.17-.549c1.375-3.732 3.557-7.026 5.682-10.082a.279.279 0 01.107-.036c.005.018.014.018.017.055 1.333 2.561 3.833 3.75 5.702 4.3.011 0 .023.018.023.055 0 .054-.03.128-.103.292zm34.376-2.945c1.23-1.701 4.807-6.257 5.68-7.026 2.933-2.58 4.106-1.445 4.207-.64a578.724 578.724 0 01-9.007 15.57c.006-.019-.95 1.445-.95 1.445-1.342 2.048-2.693 3.805-4.897 5.03-.314.093-.832.13-1.177-.128-.415-.274-.579-.732-.532-1.208.132-1.573 1.734-6.384 6.676-13.044zM45.037 16.418c-3.792-2.488-11.415 2.269-17.52 10.428-5.583 7.319-7.993 15.826-5.37 19.76 3.903 4.629 11.148-2.104 14.23-5.708l.397-.421c2.095-2.25 3.714-4.959 5.28-7.557 0 0 1.44-2.379 1.51-2.489.89-.164 1.961-.42 3.17-.768-.018.055-4.623 7.794-4.153 11.636.147 1.172.035 5.454 4.215 6.752 5.57.934 10.02-3.384 13.944-7.227 0 0 .669-.64 1.047-1.005a215.179 215.179 0 00-.22.895c-1.632 5.672.567 6.862 1.942 7.301 4.156 1.208 9.122-4.83 9.138-4.83-.13 1.902-.506 3.476 1.5 4.738 1.892.678 3.807-.355 5.263-1.325 5.244-3.696 9.468-9.48 12.88-14.48h-2.177c-.025 0-5.37 7.747-8.841 9.43-.005 0-.637.325-1.001.069-.45-.385-.273-1.184.005-1.75.017-.037 13.4-23.249 13.4-23.249h-6.318s-.69 1.117-.747 1.19c-.042-.036-.143-.228-.214-.32-3.915-5.416-12.78 2.914-19.456 12.574-2.57 3.714-5.841 7.896-9.234 10.916 0 0-5.025 4.607-7.173 1.297-.785-1.391-.543-3.424-.1-4.76 2.5-7.117 6.808-13.576 11.71-17.474 1.384-1.078 2.889-1.39 3.635-.933.711.422.826 1.464.376 2.177-1.142-.036-2.056.31-2.8 1.08-1.465 1.536-1.974 3.019-1.508 4.41 2.263 3.22 6.775-3.148 6.557-7.027-.078-1.39-.82-2.707-1.927-3.348-1.65-.988-4.168-.732-5.797.055-2.181.823-5.634 3.695-7.649 5.928-2.537 2.8-6.888 5.91-8.249 5.561.446-1.19 4.121-8.709.255-11.526zM76.8 57.127c-7.442-4.794-17.542-5.635-33.83-1.116-17.364 4.08-23.154 6.696-30.757 1.445-2.92-2.58-3.968-6.733-3.186-12.715 1.814-9.753 6.715-19.138 15.422-29.548 4.86-5.416 9.368-10.063 15.32-11.93 4.562-1.17 4.136 2.415 3.584 2.928-.583 0-1.561.092-2.318.585-.613.476-2.298 2.013-2.389 4.08-.13 3.166 3.145 2.507 4.558.77 1.523-1.959 3.773-5.71 2.003-9.204C44.464 1.178 43.182.318 41.59.025c-5.45-.311-10.527 2.287-15.212 5.16C16.135 12.302 7.94 22.164 3.302 32.959.63 39.472-1.789 48.802 1.835 56.396c2.804 5.269 8.625 8.067 15.57 7.482 4.871-.512 10.76-2.086 14.722-3.036 3.961-.952 24.238-7.923 30.901 4.209 0 0 2.216-4.301 7.752-4.393 4.552-.42 11.12 1.318 15.901 4.83-1.593-2.396-6.11-5.927-9.878-8.36z"/></svg><svg viewBox="0 0 27 26" id="contact-arrow" xmlns="http://www.w3.org/2000/svg"><path d="M6.194 19.948a.91.91 0 01-.082-1.192l.082-.093L19.05 5.807a.909.909 0 011.367 1.192l-.082.093L7.48 19.95a.91.91 0 01-1.285 0z"/><path d="M9.346 7.38a.91.91 0 01-.138-1.808l.134-.01 10.349-.022a.91.91 0 01.901.776l.01.135L20.58 16.8a.91.91 0 01-1.808.13l-.01-.134.019-9.436-9.435.02z"/></svg><svg viewBox="-37.425 -10.813 324.35 64.875" id="macron" xmlns="http://www.w3.org/2000/svg"><path d="M249.5 18.36v24.42h-10.88V16.14c0-2.53-.76-4.36-2.28-5.52-1.53-1.15-3.23-1.73-5.13-1.73-1.89 0-3.58.58-5.05 1.73-1.47 1.16-2.21 2.99-2.21 5.52v26.63h-11.03V.12L232 .13c4.2.18 8.09 1.33 11.67 3.55 3.89 2.43 5.83 7.32 5.83 14.68M173.08.97c-1.4 1.4-7.14 8.24-7.3 8.4-1.3 1.3-2.42 1.35-4.01 1.5-2.33.17-3.85.53-5.07 1.71-1.48 1.67-1.44 4.03-1.44 7.05v23.15h-11V18.34c0-7.36 1.94-12.26 5.84-14.68 3.46-2.15 7.19-3.26 11.23-3.48.9-.05 4.36-.09 4.5-.09l7.05.1c.41 0 .5.48.2.78m-39.62 28.48h7.88c-1.16 4.41-3.37 7.78-6.62 10.09-3.26 2.42-7.37 3.63-12.31 3.63-5.99 0-10.67-1.94-14.03-5.83-3.37-3.78-5.05-8.68-5.05-15.72 0-6.73 1.63-11.99 4.89-15.77 3.37-3.89 8.05-5.84 14.04-5.84 6.31 0 11.2 1.89 14.67 5.68 1.89 2.32 3.26 4.99 4.1 8.04h-11.04c-.53-1.05-1.05-1.84-1.58-2.36-1.37-1.47-3.31-2.21-5.84-2.21-2.32 0-4.21.74-5.68 2.21-1.9 2.1-2.84 5.57-2.84 10.4 0 4.84.94 7.73 2.84 9.73 1.36 1.69 3.41 2.52 6.15 2.52 1.79 0 3.32-.37 4.57-1.1.32-.1.6-.29.87-.55l.87-.87c.21-.32.63-.73 1.26-1.26.64-.53 1.59-.79 2.85-.79M62.29 18.3v24.42H51.41V16.09c0-2.53-.76-4.36-2.29-5.52-1.53-1.16-3.23-1.73-5.12-1.73-1.89 0-3.6.58-5.13 1.73-1.52 1.16-2.29 2.99-2.29 5.52v26.63H25.7V16.09c0-2.53-.76-4.36-2.28-5.52-1.53-1.16-3.24-1.73-5.13-1.73-1.9 0-3.58.58-5.05 1.73-1.47 1.16-2.21 2.99-2.21 5.52v26.63H0V0l17.98.01c2.42 0 4.78.26 7.1.79 2.31.53 4.41 1.58 6.31 3.15 1.58-1.36 3.44-2.34 5.6-2.92 2.15-.58 4.39-.92 6.7-1.02 4.63 0 8.88 1.21 12.77 3.63 3.89 2.42 5.83 7.31 5.83 14.66m26.55 14.96c-.95.84-2.31 1.26-4.1 1.26H80.8c-1.79 0-3.15-.42-4.1-1.26-.95-.95-1.42-2.19-1.42-3.76 0-1.86 1.38-3.47 3.39-4.26.54-.22 1.14-.44 1.81-.63l3.63-.79c2.63-.63 4.68-1.31 6.15-2.05v7.71c0 1.57-.47 2.83-1.42 3.78M95.94 3C92.99 1.01 88.58.01 82.69.01c-5.26 0-9.3 1.21-12.14 3.63-2.52 2.11-4 4.79-4.41 8.04h10.57c.52-1.16 1.36-1.95 2.52-2.37 1.16-.42 2.47-.63 3.94-.63 1.36 0 2.86.23 4.49.71 1.63.48 2.45 1.5 2.45 3.08 0 2.11-2.31 3.47-6.94 4.1l-4.42.63c-4 .63-7.28 1.89-9.86 3.78-2.58 1.9-3.87 4.4-3.87 8.81 0 4.73 1.42 8.12 4.26 10.18 2.84 2.05 6.15 3.07 9.94 3.07h7.1c3.79 0 7.1-1.02 9.94-3.07 2.84-2.06 4.25-5.45 4.25-10.18V11.84c0-3.79-1.53-6.73-4.57-8.84m70.85 18.7c0 11.57 9.1 21.01 20.54 21.55l-15.24-35.7c-3.3 3.79-5.3 8.73-5.3 14.15m43.15 0c0-5.41-2-10.36-5.29-14.15l-15.22 35.7c11.42-.56 20.51-9.99 20.51-21.55m-20.24-7.48c-.34.35-.81.57-1.34.57-.47 0-.9-.18-1.23-.46l-5.19-4.48c-.23-.2-.37-.5-.37-.83 0-.33.15-.63.38-.84l5.22-4.51a1.86 1.86 0 012.48.07l5.11 4.41c.24.2.39.51.39.85 0 .32-.14.61-.35.82zM188.36.12c-6.13 0-11.66 2.56-15.58 6.66l13.45 12.37c.57.52 1.32.83 2.14.83.82 0 1.57-.31 2.13-.82l13.45-12.37c-3.93-4.11-9.46-6.67-15.59-6.67"/></svg><svg viewBox="0 0 11 7" id="nav-arrow" xmlns="http://www.w3.org/2000/svg"><path d="M1.13 1.13a.441.441 0 01.574-.043l.05.042 3.805 3.806 3.806-3.806a.441.441 0 01.574-.042l.05.042c.156.157.17.402.042.575l-.043.05L5.871 5.87a.441.441 0 01-.575.042l-.05-.042L1.13 1.753a.441.441 0 010-.624z"/></svg><svg overflow="visible" viewBox="-29.4 -17.463 254.8 104.78" id="nike" xmlns="http://www.w3.org/2000/svg"><path d="M21.62 69.825c-5.84-.232-10.618-1.83-14.354-4.798-.713-.567-2.412-2.267-2.982-2.984-1.515-1.905-2.545-3.759-3.232-5.816-2.114-6.332-1.026-14.641 3.112-23.76 3.543-7.807 9.01-15.55 18.548-26.274C24.117 4.615 28.302 0 28.328 0c.01 0-.218.395-.505.876-2.48 4.154-4.602 9.047-5.758 13.283-1.857 6.797-1.633 12.63.656 17.153 1.58 3.116 4.286 5.815 7.33 7.307 5.33 2.611 13.131 2.827 22.66.632.655-.152 33.161-8.781 72.235-19.176A88696.433 88696.433 0 01196 1.187c.011.009-90.78 38.859-137.91 59.014-7.465 3.191-9.46 3.997-12.97 5.229-8.97 3.15-17.005 4.653-23.5 4.395z"/></svg><svg viewBox="0 0 10 6" id="percent-arrow" xmlns="http://www.w3.org/2000/svg"><path d="M5 6L.67 0h8.66L5 6z"/></svg><svg viewBox="-45 -37.286 390 223.716" id="puma" xmlns="http://www.w3.org/2000/svg"><path d="M161.689.51c-.982.145-1.926 3.76-3.823 5.644-1.386 1.357-3.12 1.275-4.038 2.955-.35.625-.237 1.698-.631 2.724-.777 2.059-3.501 2.242-3.501 4.483-.01 2.422 2.27 2.882 4.249 4.603 1.544 1.38 1.692 2.333 3.56 3.005 1.598.54 3.972-1.23 6.11-.593 1.752.52 3.431.896 3.829 2.699.35 1.664-.025 4.237-2.153 3.94-.717-.082-3.83-1.127-7.646-.72-4.612.524-9.872 2.027-10.387 7.17-.284 2.87 3.271 6.257 6.703 5.568 2.37-.464 1.25-3.264 2.538-4.621 1.695-1.743 11.295 6.077 20.214 6.077 3.756 0 6.55-.95 9.325-3.855.26-.224.575-.698.976-.73.379.032 1.038.405 1.256.563 7.182 5.774 12.615 17.36 39.023 17.492 3.716.022 7.943 1.797 11.4 4.947 3.081 2.848 4.88 7.283 6.633 11.779 2.645 6.746 7.377 13.31 14.56 20.611.39.392 6.304 4.988 6.777 5.33.073.053.509 1.088.357 1.666-.174 4.382-.811 17.114 8.682 17.692 2.32.116 1.714-1.516 1.714-2.636-.006-2.22-.41-4.423.757-6.696 1.598-3.122-3.39-4.559-3.245-11.312.104-5.035-4.126-4.176-6.27-8.012-1.237-2.222-2.336-3.4-2.257-6.118.483-15.295-3.255-25.347-5.117-27.816-1.455-1.862-2.658-2.601-1.33-3.463 7.925-5.237 9.721-10.102 9.721-10.102 4.215-9.903 8.003-18.948 13.228-22.932 1.05-.824 3.75-2.838 5.404-3.627 4.878-2.299 7.441-3.694 8.859-5.07 2.238-2.182 4.012-6.737 1.862-9.497-2.67-3.406-7.29-.704-9.325.506-14.566 8.643-16.713 23.891-21.758 32.649-4.025 6.995-10.57 12.135-16.422 12.555-4.382.325-9.114-.562-13.821-2.63-11.45-5.02-17.714-11.5-19.198-12.647-3.075-2.374-26.954-25.82-46.306-26.777 0 0-2.402-4.811-3.005-4.887-1.414-.183-2.863 2.87-3.902 3.227-.976.322-2.617-3.306-3.602-3.145M76.505 140.434c-1.821-.044-3.368-1.537-3.368-3.384l.006-60.36H53.248v66.532c0 3.264 2.642 5.922 5.885 5.922H93.9c3.264 0 5.875-2.658 5.875-5.922V76.689H79.899l-.016 60.361c0 1.847-1.547 3.34-3.378 3.384m66.602-63.744h-30.104c-3.568 0-6.469 2.897-6.469 6.496v65.958h19.914V88.642a3.343 3.343 0 013.365-3.322c1.857 0 3.35 1.434 3.39 3.271v60.553h19.83V88.591c.025-1.837 1.515-3.27 3.371-3.27 1.837 0 3.36 1.467 3.372 3.32v60.503h19.914V83.186c0-3.599-2.911-6.497-6.472-6.497h-30.11M39.98 130.938H19.881v18.206H0V76.69h40.106c3.59 0 6.393 2.917 6.393 6.526v41.191a6.514 6.514 0 01-6.52 6.532zm-13.351-42.17a3.403 3.403 0 00-3.369-3.448h-3.378v36.646h3.378c1.756 0 3.385-1.395 3.369-3.403V88.768"/><path d="M213.068 149.144v-18.19h-6.759v18.19h-19.873V83.186c0-3.599 2.901-6.497 6.469-6.497h33.57c3.574 0 6.472 2.898 6.472 6.497v65.958zm0-27.165V88.616c-.047-1.843-1.531-3.26-3.387-3.26-1.838 0-3.353 1.473-3.372 3.314v33.309h6.759"/></svg><svg viewBox="-18.746 -6.936 162.464 41.616" id="saeta" xmlns="http://www.w3.org/2000/svg"><path d="M117.974 5.124h-5.999l-9.81 17.621h6.124l1.312-2.75h5.186l.25 2.75h5.686zm-3.937 5.311l.063.063h-.063l.438 5.311h-3.062l2.624-5.311zm10.56 9.248l-.25-.312-.187-.125-.5-.125-.5.125-.437.437-.312.563-.063.687.063.687.312.625.437.375.5.125.5-.125.063-.125.125-.062.25-.188.25-.625.062-.375v-.187l.063-.125-.126-.687-.25-.563zM25.87 11.747l-1-.312h-.874l-1.5.25-1.687.375L36.867 0l-4.75 2.312-2.499 1.25-2.437 1.374-5.124 2.812-2.686 1.5-2.625 1.625-2.062 1.187-2.562 1.687-.562.438-.438.562-.187.25-.063.312.063.25.187.375.813.25.937.125 1.5-.375 1.75-.25L0 27.744l4.686-2.437 4.937-2.624 2.5-1.437 2.624-1.375 2.624-1.5 2.75-1.5 1.062-.624.5-.313.562-.25 2.624-1.687.188-.25.25-.187.5-.563.125-.375.062-.25-.125-.624zM39.366 5.5l-.875.375-.687.5-.562.5-.438.624-.437.563-.25.687-.187 1.562.062.75.188.812.312.688.187.312.313.375.625.563 1.062.624 1.375.625 1.812.75.687.25.625.25h.062l.125.062.188.126.312.25.25.374.125.5-.062.25-.125.25-.188.25-.25.313-.375.187-.375.187-.5.063-.5.062-.624-.062-.438-.125-.437-.187-.312-.25-.313-.438-.187-.5-.125-.687v-.75l-5.499.437v.563l.062 1.187.375 1.125.188.437.312.5.375.438.5.5.437.312.563.375.625.25.75.312.75.125.874.188.937.062 1.063.063.625-.063h.687l.625-.125.625-.062.5-.188.562-.125.5-.187.5-.125.687-.5.687-.5.25-.312.313-.25.5-.625.375-.75.125-.375v-.187h.062l.125-.125.188-.75.062-.75-.062-.875-.188-.687-.312-.688-.313-.562-.437-.562-.5-.5-.562-.438-.563-.312-1.375-.75-.812-.375-.875-.312-.812-.313-.562-.25-.438-.187-.187-.125-.25-.313-.063-.25.063-.5.375-.374.187-.188.313-.062.75-.063h.437l.437.125.375.125.375.313.188.25.25.437.125.437.124.563 5.437-.313-.25-1.312-.25-.625-.188-.5-.687-.937-.437-.437-.375-.313-.563-.375-.562-.25-1.25-.437-.75-.188-.75-.062-1.624-.063h-1.125l-1 .125-.937.188zm26.12-.375h-6.062l-9.748 17.621h6.062l1.312-2.75h5.311l.188 2.75h5.686zm-4.062 5.499h.062l.438 5.186h-3l2.5-5.186zm26.744-5.499H73.734l-3.687 17.621h15.184l.875-4.311h-9.435l.687-2.937h8.373l.812-4H78.17l.5-2.311h8.686zm2.062 0l-.937 4.624h5.374l-2.75 12.997h5.749l2.75-12.997h5.56l.938-4.624z" fill-rule="evenodd"/></svg><svg viewBox="0 0 18 18" id="search" xmlns="http://www.w3.org/2000/svg"><path d="M7.667 14.333A6.667 6.667 0 107.667 1a6.667 6.667 0 000 13.333zM17 17l-4.667-4.667"/></svg><svg viewBox="0 0 14 14" id="tel" xmlns="http://www.w3.org/2000/svg"><path clip-rule="evenodd" d="M6.704 7.298c2.52 2.52 3.091-.395 4.695 1.208 1.547 1.546 2.436 1.856.476 3.815-.245.197-1.805 2.57-7.285-2.909-5.48-5.479-3.109-7.04-2.912-7.285 1.964-1.965 2.269-1.07 3.815.476C7.097 4.206 4.185 4.78 6.704 7.298z"/></svg></svg>