<svg xmlns="http://www.w3.org/2000/svg" height="800" width="1200" viewBox="-18.745875 -6.936025 162.46425 41.61615"><path d="M117.974 5.124h-5.9987l-9.8103 17.6212h6.1236l1.3122-2.7495h5.1864l.25 2.7495h5.6862zm-3.9367 5.3113l.0626.0625h-.0626l.4375 5.3113h-3.0619l2.6245-5.3113zm10.5602 9.248l-.25-.3124-.1874-.125-.4999-.125-.4999.125-.4374.4374-.3124.5624-.0625.6873.0625.6874.3124.6249.4374.3749.5.125.4998-.125.0625-.125.125-.0625.25-.1874.2499-.625.0625-.3748v-.1875l.0625-.125-.125-.6873-.25-.5624zm-98.7282-7.9358l-.9998-.3124h-.8748l-1.4997.25-1.687.3748L36.8668 0l-4.749 2.312-2.4994 1.2497-2.437 1.3747-5.1239 2.812-2.6869 1.4996-2.6244 1.6247-2.062 1.1872-2.562 1.6872-.5623.4374-.4375.5624-.1874.25-.0625.3123.0625.25.1874.375.8124.2499.9373.125 1.4996-.375 1.7496-.25L0 27.7442l4.6865-2.437 4.9364-2.6244 2.4994-1.4372 2.6244-1.3747 2.6245-1.4997 2.7494-1.4997 1.0622-.6249.5-.3124.5623-.25 2.6244-1.687.1875-.25.25-.1875.4998-.5624.125-.3749.0625-.25-.125-.6248zm13.497-6.2487l-.8748.375-.6873.4998-.5624.5-.4374.6248-.4374.5624-.25.6873-.1874 1.5622.0625.7498.1874.8124.3125.6873.1874.3125.3124.3749.625.5624 1.0622.6248 1.3747.6249 1.812.7498.6874.25.6249.25h.0625l.125.0624.1874.125.3124.25.25.3749.125.4999-.0625.2499-.125.25-.1875.2499-.25.3124-.3748.1875-.375.1874-.4998.0625-.5.0625-.6248-.0625-.4374-.125-.4374-.1874-.3124-.25-.3125-.4373-.1874-.5-.125-.6873v-.7498l-5.4988.4374v.5624l.0625 1.1872.375 1.1248.1874.4374.3124.4999.375.4374.4998.4999.4374.3124.5624.375.6249.2499.7498.3124.7498.125.8748.1874.9373.0625 1.0623.0625.6249-.0625h.6873l.6249-.125.6248-.0624.5-.1875.5623-.125.4999-.1874.4999-.125.6873-.5.6874-.4998.25-.3124.3124-.25.4998-.6248.375-.7499.125-.375v-.1874h.0624l.125-.125.1875-.7498.0624-.7498-.0624-.8748-.1875-.6874-.3124-.6873-.3125-.5624-.4374-.5624-.4999-.4999-.5623-.4374-.5624-.3124-1.3747-.7499-.8123-.3749-.8748-.3124-.8124-.3125-.5623-.25-.4374-.1874-.1875-.125-.25-.3124-.0624-.25.0625-.4998.3749-.375.1874-.1874.3125-.0625.7498-.0625h.4374l.4374.125.375.125.3748.3124.1875.25.25.4374.125.4374.1249.5623 5.4363-.3124-.25-1.3122-.25-.6249-.1874-.4999-.6873-.9373-.4374-.4374-.375-.3124-.5623-.375-.5624-.2499-1.2497-.4374-.7498-.1875-.7499-.0624-1.6246-.0625h-1.1248l-.9998.125-.9372.1874zm26.1193-.3748h-6.0612l-9.7479 17.6212h6.0612l1.3122-2.7495h5.3113l.1875 2.7495h5.6863zm-4.0616 5.4987h.0624l.4374 5.1864h-2.9993l2.4995-5.1864zM88.168 5.124H73.7338l-3.6866 17.6212h15.1841l.8748-4.3116h-9.4354l.6873-2.9369h8.3732l.8123-3.9991h-8.3731l.4999-2.312h8.6855zm2.0621 0l-.9373 4.624h5.3738l-2.7494 12.9972h5.7488l2.7494-12.9973h5.5612l.9373-4.624z" fill-rule="evenodd"/></svg>